<?xml version="1.0" encoding="UTF-8"?>
<svg width="21px" height="21px" viewBox="0 0 21 21" version="1.1" xmlns="http://www.w3.org/2000/svg" xmlns:xlink="http://www.w3.org/1999/xlink">
    <title>Group 3</title>
    <desc>Created with Sketch.</desc>
    <defs></defs>
    <g id="Symbols" stroke="none" stroke-width="1" fill="none" fill-rule="evenodd">
        <g id="Blocks-/-nav-/-header-/-close-Copy" transform="translate(-47.000000, -48.000000)">
            <g id="Group-3" transform="translate(47.000000, 48.000000)">
                <circle id="Oval-6" fill="#FFFFFF" cx="10.5" cy="10.5" r="10.5"></circle>
                <path d="M5.5,15.5 L16.5,15.5" id="Line" stroke="#00A08D" stroke-linecap="square"></path>
                <path d="M15.9888095,4.99582459 C15.1221517,4.1294693 14.3571333,4 13.9784054,4 C13.8552886,4 13.7881339,4.01391492 13.7881339,4.01391492 C13.7013169,4.03206483 13.6087524,4.07713708 13.5461352,4.14005674 L11.933214,5.75297798 C11.9329115,5.75328048 11.9329115,5.75328048 11.9329115,5.75328048 L6.30220707,11.3845899 C6.30160207,11.3851949 6.30099707,11.3851949 6.30039208,11.3857999 C6.29978708,11.3861024 6.29978708,11.3870099 6.29918208,11.3876149 L5.81064724,11.8761497 C5.74742508,11.9390694 5.70416781,12.019534 5.68662291,12.106956 L5.00902659,15.4580328 C4.97877675,15.6071645 5.025664,15.7614386 5.13305091,15.8688256 C5.21896045,15.9547351 5.33481732,16.0016223 5.45400167,16.0016223 C5.48394901,16.0016223 5.51389635,15.9985974 5.54384368,15.9925474 L8.89461799,15.3149511 C8.98234251,15.2971037 9.06250458,15.2544514 9.12572674,15.1912292 L9.61516908,14.7017869 C9.61547158,14.7014844 9.61577408,14.7014844 9.61607657,14.7011819 C9.61637907,14.7008794 9.61637907,14.7005769 9.61668157,14.7002744 L15.2482935,9.06866248 L15.248596,9.06866248 C15.248596,9.06866248 15.248596,9.06835998 15.2488985,9.06835998 L16.8618197,7.45543874 C16.9301844,7.38707411 16.9749541,7.29844209 16.989474,7.20315511 C17.005809,7.09576819 17.1171283,6.12414347 15.9888095,4.99582459 Z M9.29482332,13.7383296 L7.26294185,11.7067507 L12.2538623,6.71552776 L14.2860462,8.74740922 L9.29482332,13.7383296 Z M6.03419352,14.9676829 L6.54904573,12.4209493 L6.62134283,12.3486522 L8.6532243,14.3802311 L8.5806247,14.4528307 L6.03419352,14.9676829 Z M14.9276452,8.10581021 L12.8954613,6.07392874 L14.0579625,4.91142755 C14.2739463,4.93229994 14.7591536,5.0496693 15.3472105,5.63742361 C15.9434347,6.23364787 16.0656441,6.72672019 16.0883314,6.94482151 L14.9276452,8.10581021 Z" id="Shape" fill="#00A08D" fill-rule="nonzero"></path>
            </g>
        </g>
    </g>
</svg>
